<?xml version="1.0" encoding="UTF-8" standalone="no"?>
<!DOCTYPE svg PUBLIC "-//W3C//DTD SVG 1.1//EN" "http://www.w3.org/Graphics/SVG/1.1/DTD/svg11.dtd">
<svg width="100%" height="100%" viewBox="0 0 600 530" version="1.1" xmlns="http://www.w3.org/2000/svg" xmlns:xlink="http://www.w3.org/1999/xlink" xml:space="preserve" xmlns:serif="http://www.serif.com/" style="fill-rule:evenodd;clip-rule:evenodd;stroke-linecap:round;stroke-linejoin:round;stroke-miterlimit:1.5;">
    <path d="M232.542,241.503C233.991,238.605 248.462,223.726 255.06,215.092C269.04,196.798 278.86,185.7 270.301,177.141C268.685,175.525 243.247,139.217 223.658,117.084C217.506,110.132 201.435,90.254 177.619,66.438C161.265,50.084 108.535,82.311 101.243,75.02C96.531,70.308 78.756,16.31 135.57,20.098C138.328,20.282 149.879,31.833 151.016,32.97C152.865,34.819 156.034,34.076 153.591,34.686C77.796,53.635 101.959,79.025 109.825,94.758C116.932,108.972 142.021,137.695 143.293,140.24C148.923,151.5 183.331,187.796 184.965,189.43C203.546,208.01 204.806,216.733 232.542,241.503Z" style="fill:white;stroke:white;stroke-width:7.6px;"/>
    <g transform="matrix(0.934357,0.111412,-0.107233,0.899308,40.146704,7.312641)">
        <path d="M377.544,128.999C356.803,133.147 334.843,163.05 321.935,169.504C320.576,170.183 260.816,245.04 259.461,246.395C257.676,248.18 229.583,300.988 216.896,313.675C209.989,320.581 186.847,362.947 175.704,374.089C173.133,376.661 166.3,391.732 149.616,408.416C149.245,408.787 111.032,464.303 109.798,466.771C98.127,490.113 85.184,497.674 104.305,504.048C113.742,507.193 135.449,480.002 136.572,477.755C137.551,475.798 155.679,449.47 162.66,441.369C183.916,416.707 228.803,372.255 230.627,371.343C252.379,360.467 267.71,323.967 299.279,308.183C301.911,306.867 361.088,266.261 390.588,207.263C397.315,193.808 410.77,161.679 413.93,158.519" style="fill:white;stroke:white;stroke-width:8.23px;"/>
    </g>
    <path d="M325.465,350.94C337.11,362.585 352.626,391.622 365.557,404.554C376.321,415.318 409.466,450.18 424.77,465.483C448.634,489.348 526.695,522.658 511.444,491.228C473.278,412.576 493.735,427.492 429.06,350.489C423.796,344.222 389.28,311.776 388.111,310.606C381.93,304.425 363.657,315.93 348.311,329.602C339.69,337.283 330.697,340.477 325.465,350.94Z" style="fill:white;stroke:white;stroke-width:8.5px;"/>
    <g transform="matrix(1,0,0,1,18.145497,16.202964)">
        <path d="M418.735,65.838C442.383,63.688 464.685,53.576 468.165,46.615C476.305,30.336 465.991,29.11 469.538,18.468C469.997,17.092 471.294,16.791 483.955,29.452C503.974,49.471 528.311,125.782 449.041,145.6C439.298,148.035 397.532,159.77 387.907,121.272C383.732,104.569 382.325,83.7 407.064,71.33C417.799,65.963 418.006,66.568 418.735,65.838Z" style="fill:white;stroke:white;stroke-width:7.6px;"/>
    </g>
</svg>
